PathFileType	4	(X/Y/Z)	Patient4_TMGait_0pt8_01_right_24.trc.trc
DataRate	CameraRate	NumFrames	NumMarkers	Units	OrigDataRate	OrigDataStartFrame	OrigNumFrames
86.956521739130	86.956521739130	4	33	mm	86.956521739130	53	       141
Frame#	Time	Sacral			L.Shoulder			Chest			R.Shoulder			Neck			R.ASIS			L.ASIS			R.Thigh.Superior			R.Thigh.Lateral			R.Thigh.Inferior			R.Patella			L.Thigh.Superior			L.Thigh.Lateral			L.Thigh.Inferior			L.Patella			L.Shank.Superior			L.Shank.Lateral			L.Shank.Inferior			R.Shank.Superior			R.Shank.Lateral			R.Shank.Inferior			R.Heel			R.Midfoot.Superior			R.Midfoot.Lateral			R.Toe			L.Heel			L.Midfoot.Lateral			L.Midfoot.Superior			L.Toe			L.Elbow			L.Wrist			R.Elbow			R.Wrist			
		X1	Y1	Z1	X2	Y2	Z2	X3	Y3	Z3	X4	Y4	Z4	X5	Y5	Z5	X6	Y6	Z6	X7	Y7	Z7	X8	Y8	Z8	X9	Y9	Z9	X10	Y10	Z10	X11	Y11	Z11	X12	Y12	Z12	X13	Y13	Z13	X14	Y14	Z14	X15	Y15	Z15	X16	Y16	Z16	X17	Y17	Z17	X18	Y18	Z18	X19	Y19	Z19	X20	Y20	Z20	X21	Y21	Z21	X22	Y22	Z22	X23	Y23	Z23	X24	Y24	Z24	X25	Y25	Z25	X26	Y26	Z26	X27	Y27	Z27	X28	Y28	Z28	X29	Y29	Z29	X30	Y30	Z30	X31	Y31	Z31	X32	Y32	Z32	X33	Y33	Z33	

53	27.388000000000	892.137752683343	1007.249324310995	529.927430810996	1038.984797723606	1437.585439687226	340.561550062630	1162.006274594688	1369.371495692472	487.954183783909	1099.451765061700	1437.508872760420	672.726474704495	1041.751639792680	1498.014407442659	497.217731518892	1126.112837448950	948.493045460643	629.097377563286	1091.107172430666	965.517456831750	356.614340388623	1146.203909778619	741.401142291674	599.151466888682	1055.681832442227	636.544873268752	660.350056212998	1124.551676402541	579.657500532511	580.067286426365	1116.011238193604	494.374415317396	584.577960068265	1183.834651644811	794.859664098018	371.424197542672	1140.236342184591	664.069653126402	294.693818650164	1255.127937213518	610.607898122403	340.059494602957	1277.415368359903	527.546425914733	330.020473472199	1229.124291823252	450.992769418455	328.476447809989	1102.281670980688	368.397514179155	293.898904042444	1137.319056860132	240.995501257953	344.345995518082	1088.479362200208	406.787066221718	588.663125576418	1015.949204628282	301.008302075241	645.421800824280	1061.336384377462	208.421177075304	579.642007085220	929.293040458033	42.741355449156	540.897074108438	1101.298822206768	99.091607717654	579.681901530383	1012.465790971237	37.132934669185	615.600761925034	1220.053527995376	46.823164118068	604.678366044923	984.275507219726	116.626431009734	402.556514898678	1039.968067921004	96.344142762674	311.406842413441	1139.129374115334	138.059478531776	320.422971154886	1242.991771345853	60.748646045487	271.157683811728	1004.959275315078	1080.451154403756	240.045068599516	1069.454043710794	829.599837327666	226.540243931148	1166.507857184692	1090.377151457284	786.287767079872	1353.750756711622	910.276206125199	775.597117269377	
54	27.399500000000	891.035495233578	1007.097039132684	530.641768958613	1038.003648831604	1436.510983028133	340.364090529477	1161.650546023802	1368.507830946215	487.310081849393	1100.192547346357	1437.311393106248	672.269602615284	1041.774275718590	1497.429578984356	496.766564859973	1125.213648581913	947.876105393165	629.419504393308	1089.674400336062	964.840353143738	356.857653823855	1142.979801730971	740.279214838417	599.014463417378	1051.311362301485	636.218538454424	660.706777907488	1118.814582180788	578.596721805116	580.105765660812	1109.275341467314	493.603270058103	584.473227823235	1183.084458318548	796.048517479903	372.940129451817	1141.793993756184	665.079829494536	295.294544845310	1256.242972697571	612.617602945721	342.297836839991	1280.436848752397	531.498514770327	331.575816239859	1236.285529692697	454.157410770799	328.500376189800	1115.657988580000	363.845714829900	292.141041254914	1159.112268875261	238.233011225492	341.129181361725	1081.308081885685	406.267763244915	588.494981411705	1008.636364270324	300.774495532993	645.608494079752	1053.032346559652	208.043710102997	579.351918776695	920.059384239263	42.745960563868	540.832118492557	1092.086352791922	98.923133520227	579.578910292261	1003.214184052790	37.159383848615	615.565297156104	1210.863641188450	46.393180829899	604.735449893248	1014.846635856325	103.809994068050	397.524719899753	1071.922894446340	87.636645224443	306.389070980648	1168.347263653933	135.155422441676	316.010311101499	1276.844136733627	64.471235917430	266.547478052902	994.451283201611	1080.088663216581	241.411998775884	1043.136613202875	825.964996251313	227.623951138566	1177.144364199755	1092.941091975604	786.322113529535	1375.485167026847	925.555262259566	771.549746924308	
55	27.411000000000	890.001395412527	1006.893858001542	531.220020263631	1037.266949353801	1435.411785840813	340.016858861758	1161.429714223370	1367.542866392781	486.573584030194	1100.959301863894	1436.993717182172	671.674736947594	1041.906678420196	1496.761056804731	496.180015719348	1124.369047575543	947.199630393974	629.650557588837	1088.355101633249	963.970949102773	356.959976480266	1139.818077602047	739.066512457907	598.989317830442	1046.887504280275	635.864146317495	661.047817368072	1113.089641806884	577.504567868472	580.172664733205	1102.559371794150	492.803887717356	584.376120579259	1181.958913759001	796.561039654085	374.382495833224	1142.627734329881	665.597335933721	295.784564481084	1256.408990650123	613.799194159961	344.620719916539	1282.387698699408	534.841538544696	333.242594079253	1242.492533112106	457.122410611802	328.670121917721	1128.866222188311	359.400896010391	290.307189434572	1180.657761157978	236.273765006201	338.153128954815	1074.107229376088	405.753859830484	588.349921790197	1001.282878123220	300.557198441288	645.829522098473	1044.681753961236	207.688740912298	579.101431436550	910.818567200252	42.752223981582	540.779573776428	1082.866899299867	98.762223523785	579.479651686865	993.955059284880	37.178056599517	615.538927822944	1201.679296231288	45.969327810713	604.801162312257	1045.871138085996	92.397062639080	392.558176295112	1104.371668083796	80.254728668161	301.685110391015	1197.624263243425	133.438445624866	312.033393683778	1310.465344573074	69.589528331072	262.955279816730	983.771926306611	1080.187406452649	242.473847755031	1017.568619116415	823.917385934187	228.815435008918	1187.194372159989	1095.627003543546	786.136761138195	1395.882151057067	941.934604855464	767.181821753676	
56	27.422500000000	889.070894953933	1006.654698198737	531.675919460782	1036.768521554826	1434.315289829107	339.522300120241	1161.343169207547	1366.503199121879	485.743151727885	1101.756648398633	1436.578354699948	670.942412387072	1042.138640271522	1496.027179224869	495.470389766119	1123.595302402352	946.473914361682	629.793716156239	1087.165829753073	962.943400815039	356.929919213348	1136.724489132760	737.769322911107	599.080885415442	1042.408160940872	635.492703113197	661.370514692736	1107.378224259341	576.393482365851	580.268829512878	1095.871871805510	491.982459949745	584.286348240151	1180.493421718027	796.421611084634	375.697439396815	1142.741756871848	665.638906545765	296.094754570502	1255.700694045199	614.192852208408	346.877295574355	1283.335479410817	537.589538091184	334.944121252726	1247.767668194410	459.891431014237	328.969278776465	1141.835707667017	355.185445409967	288.406841989301	1201.717014882041	235.223476939376	335.508542413372	1066.882404254439	405.253071045737	588.235036091348	993.876860879143	300.367509925187	646.079479264743	1036.282689660528	207.361594636210	578.898365042061	901.569377110498	42.760108892886	540.746091264322	1073.635537193104	98.609704758293	579.391291128304	984.688509918456	37.188096628142	615.525379110795	1192.498529654188	45.566746554115	604.873388643887	1076.913330645762	82.637004491687	387.739756463656	1136.959893996986	74.367340007201	297.435173479120	1226.632344512905	133.017432837692	308.650822063849	1343.523567328391	76.133520881204	260.670480485326	972.987581819162	1080.798857912281	243.260281471123	992.927322782013	823.323739035673	230.131593809272	1196.657892194525	1098.394597274363	785.720559773948	1414.804387452606	959.291303253740	762.545641448532	
